<?xml version="1.0" encoding="UTF-8" standalone="no"?>
<!-- Uploaded to: SVG Repo, www.svgrepo.com, Generator: SVG Repo Mixer Tools -->

<svg
   xmlns:dc="http://purl.org/dc/elements/1.1/"
   xmlns:cc="http://creativecommons.org/ns#"
   xmlns:rdf="http://www.w3.org/1999/02/22-rdf-syntax-ns#"
   xmlns:svg="http://www.w3.org/2000/svg"
   xmlns="http://www.w3.org/2000/svg"
   xmlns:sodipodi="http://sodipodi.sourceforge.net/DTD/sodipodi-0.dtd"
   xmlns:inkscape="http://www.inkscape.org/namespaces/inkscape"
   width="800px"
   height="800px"
   viewBox="0 0 24 24"
   version="1.1"
   id="svg22"
   sodipodi:docname="bilibili.svg"
   inkscape:version="0.92.5 (2060ec1f9f, 2020-04-08)">
  <metadata
     id="metadata28">
    <rdf:RDF>
      <cc:Work
         rdf:about="">
        <dc:format>image/svg+xml</dc:format>
        <dc:type
           rdf:resource="http://purl.org/dc/dcmitype/StillImage" />
        <dc:title />
      </cc:Work>
    </rdf:RDF>
  </metadata>
  <defs
     id="defs26" />
  <sodipodi:namedview
     pagecolor="#ffffff"
     bordercolor="#666666"
     borderopacity="1"
     objecttolerance="10"
     gridtolerance="10"
     guidetolerance="10"
     inkscape:pageopacity="0"
     inkscape:pageshadow="2"
     inkscape:window-width="640"
     inkscape:window-height="480"
     id="namedview24"
     showgrid="false"
     inkscape:zoom="0.295"
     inkscape:cx="400"
     inkscape:cy="400"
     inkscape:window-x="712"
     inkscape:window-y="273"
     inkscape:window-maximized="0"
     inkscape:current-layer="svg22" />
  <g
     id="g20"
     transform="matrix(1.0974577,0,0,1.1186441,-1.1186441,-1.4237288)">
    <path
       d="M 0,0 H 24 V 24 H 0 Z"
       id="path16"
       inkscape:connector-curvature="0"
       style="fill:none" />
    <path
       d="m 18.223,3.086 a 1.25,1.25 0 0 1 0,1.768 L 17.08,5.996 h 1.17 A 3.75,3.75 0 0 1 22,9.747 v 7.5 a 3.75,3.75 0 0 1 -3.75,3.75 H 5.75 A 3.75,3.75 0 0 1 2,17.247 v -7.5 A 3.75,3.75 0 0 1 5.75,5.997 H 6.916 L 5.775,4.855 A 1.25,1.25 0 1 1 7.542,3.087 l 2.652,2.652 c 0.079,0.079 0.145,0.165 0.198,0.257 h 3.213 c 0.053,-0.092 0.12,-0.18 0.199,-0.258 l 2.651,-2.652 a 1.25,1.25 0 0 1 1.768,0 z m 0.027,5.42 H 5.75 A 1.25,1.25 0 0 0 4.503,9.663 L 4.5,9.757 v 7.5 c 0,0.659 0.51,1.199 1.157,1.246 l 0.093,0.004 h 12.5 A 1.25,1.25 0 0 0 19.497,17.35 L 19.5,17.257 v -7.5 c 0,-0.69 -0.56,-1.25 -1.25,-1.25 z m -10,2.5 c 0.69,0 1.25,0.56 1.25,1.25 v 1.25 a 1.25,1.25 0 1 1 -2.5,0 v -1.25 c 0,-0.69 0.56,-1.25 1.25,-1.25 z m 7.5,0 c 0.69,0 1.25,0.56 1.25,1.25 v 1.25 a 1.25,1.25 0 1 1 -2.5,0 v -1.25 c 0,-0.69 0.56,-1.25 1.25,-1.25 z"
       id="path18"
       inkscape:connector-curvature="0" />
  </g>
</svg>
