<?xml version="1.0" encoding="UTF-8" standalone="no"?>
<svg
   xmlns:dc="http://purl.org/dc/elements/1.1/"
   xmlns:cc="http://creativecommons.org/ns#"
   xmlns:rdf="http://www.w3.org/1999/02/22-rdf-syntax-ns#"
   xmlns:svg="http://www.w3.org/2000/svg"
   xmlns="http://www.w3.org/2000/svg"
   xmlns:sodipodi="http://sodipodi.sourceforge.net/DTD/sodipodi-0.dtd"
   xmlns:inkscape="http://www.inkscape.org/namespaces/inkscape"
   width="24"
   height="24"
   stroke-linejoin="round"
   stroke-linecap="round"
   fill="none"
   stroke="#2c3e50"
   stroke-width="1.5"
   class="icon icon-tabler icon-tabler-file-code"
   version="1.1"
   id="svg11"
   sodipodi:docname="file-code.svg"
   inkscape:version="0.92.5 (2060ec1f9f, 2020-04-08)">
  <metadata
     id="metadata17">
    <rdf:RDF>
      <cc:Work
         rdf:about="">
        <dc:format>image/svg+xml</dc:format>
        <dc:type
           rdf:resource="http://purl.org/dc/dcmitype/StillImage" />
        <dc:title></dc:title>
      </cc:Work>
    </rdf:RDF>
  </metadata>
  <defs
     id="defs15" />
  <sodipodi:namedview
     pagecolor="#ffffff"
     bordercolor="#666666"
     borderopacity="1"
     objecttolerance="10"
     gridtolerance="10"
     guidetolerance="10"
     inkscape:pageopacity="0"
     inkscape:pageshadow="2"
     inkscape:window-width="640"
     inkscape:window-height="480"
     id="namedview13"
     showgrid="false"
     inkscape:zoom="9.8333333"
     inkscape:cx="12"
     inkscape:cy="12"
     inkscape:window-x="0"
     inkscape:window-y="35"
     inkscape:window-maximized="0"
     inkscape:current-layer="svg11" />
  <g
     id="g9"
     transform="matrix(0.9166574,0,0,0.91195382,-0.79700322,-0.77403561)">
    <title
       id="title2">Layer 1</title>
    <path
       id="svg_1"
       d="M 0,0 H 24 V 24 H 0 Z"
       inkscape:connector-curvature="0"
       style="fill:none" />
    <path
       id="svg_2"
       d="m 14,3 v 4 a 1,1 0 0 0 1,1 h 4"
       inkscape:connector-curvature="0" />
    <path
       id="svg_3"
       d="M 17,21 H 7 A 2,2 0 0 1 5,19 V 5 A 2,2 0 0 1 7,3 h 7 l 5,5 v 11 a 2,2 0 0 1 -2,2 z"
       inkscape:connector-curvature="0" />
    <path
       id="svg_4"
       d="m 10,13 -1,2 1,2"
       inkscape:connector-curvature="0" />
    <path
       id="svg_5"
       d="m 14,13 1,2 -1,2"
       inkscape:connector-curvature="0" />
  </g>
</svg>
