<?xml version="1.0" standalone="no"?>
<!DOCTYPE svg PUBLIC "-//W3C//DTD SVG 20010904//EN"
 "http://www.w3.org/TR/2001/REC-SVG-20010904/DTD/svg10.dtd">
<svg version="1.0" xmlns="http://www.w3.org/2000/svg"
 width="512.000000pt" height="512.000000pt" viewBox="0 0 512.000000 512.000000"
 preserveAspectRatio="xMidYMid meet">

<g transform="translate(0.000000,512.000000) scale(0.100000,-0.100000)"
fill="#000000" stroke="none">
<path d="M2629 4945 c-241 -48 -599 -153 -776 -226 -81 -34 -80 -34 -228 6
-103 28 -238 54 -288 54 -40 1 -60 -7 -130 -50 -45 -28 -125 -83 -177 -122
-100 -74 -270 -226 -270 -241 0 -4 16 -34 35 -66 42 -68 43 -85 10 -149 -43
-85 -157 -166 -270 -191 -26 -6 -49 -9 -51 -7 -2 2 9 21 25 43 29 41 51 94 51
126 0 30 -18 12 -49 -50 -16 -31 -45 -73 -65 -91 -20 -19 -36 -41 -36 -48 0
-37 139 -22 244 26 82 38 141 83 178 136 18 25 37 45 43 45 6 0 25 -28 42 -63
l31 -63 -25 -74 c-18 -53 -27 -106 -31 -180 l-5 -105 -54 -94 c-70 -121 -148
-277 -175 -348 -18 -49 -20 -68 -14 -162 4 -58 25 -189 46 -291 45 -218 64
-311 85 -439 17 -103 16 -106 -53 -199 -16 -20 -27 -51 -30 -81 -4 -41 -15
-62 -68 -132 -240 -313 -354 -468 -354 -483 0 -12 4 -14 14 -9 17 10 122 141
215 268 41 55 99 129 130 165 104 119 114 135 106 176 -5 31 -1 44 28 88 73
109 71 97 42 274 -15 86 -44 238 -65 337 -77 353 -78 394 -17 533 36 82 179
357 193 371 3 3 18 -12 35 -32 17 -20 44 -40 62 -45 106 -27 298 68 442 219
149 156 225 312 225 462 0 50 -5 88 -15 107 -21 41 -74 78 -123 86 -23 4 -42
9 -42 13 0 15 212 171 281 206 80 41 457 163 684 221 288 73 344 77 520 34
298 -72 468 -154 745 -358 132 -97 421 -377 597 -577 211 -240 209 -233 218
-816 3 -239 8 -448 11 -466 4 -27 11 -34 54 -49 28 -10 51 -23 51 -28 1 -6 2
-33 3 -59 l1 -49 160 -97 c88 -53 182 -111 208 -130 47 -32 75 -32 62 0 -6 15
-24 26 -245 161 l-145 87 -5 62 -5 61 -49 19 c-26 10 -51 21 -55 24 -3 4 -9
212 -12 463 -6 494 -8 512 -65 625 -15 28 -55 89 -90 135 l-63 84 15 40 c8 23
27 62 42 87 15 25 36 62 46 82 l19 37 -48 55 c-138 161 -365 343 -598 482
-110 65 -97 65 -285 20 l-102 -25 -104 49 c-153 73 -447 152 -555 150 -25 0
-98 -11 -162 -24z m-1094 -699 c0 -14 -33 -39 -115 -89 -63 -38 -125 -73 -137
-78 -22 -8 -23 -13 -23 -139 0 -130 -8 -170 -35 -170 -26 0 -24 290 4 429 12
61 31 50 31 -18 0 -63 9 -74 39 -47 36 32 207 135 221 133 8 -1 15 -11 15 -21z
m-345 -227 c0 -18 -168 -174 -177 -165 -13 13 16 53 83 111 74 64 94 76 94 54z"/>
<path d="M3095 4551 c-130 -37 -214 -103 -264 -210 -23 -50 -26 -68 -26 -167
0 -107 1 -112 37 -185 54 -110 142 -196 239 -237 144 -60 339 -66 461 -13 47
20 121 89 164 151 37 55 57 152 51 244 -13 193 -171 368 -380 421 -75 19 -206
17 -282 -4z m-2 -162 c25 -14 121 -92 156 -128 l24 -25 -23 -18 c-28 -22 -35
-18 -127 70 -45 44 -73 78 -73 91 0 24 11 26 43 10z m393 -24 c4 -8 0 -25 -9
-38 -22 -33 -136 -168 -172 -202 -17 -17 -61 -68 -99 -113 -73 -88 -99 -100
-104 -47 -2 25 13 49 84 140 170 214 281 310 300 260z m-21 -299 c72 -66 95
-94 93 -110 -5 -38 -34 -23 -136 70 -96 88 -100 93 -85 114 8 11 19 20 23 18
5 -2 52 -43 105 -92z"/>
<path d="M2055 3696 c-5 -2 -44 -14 -85 -27 -85 -26 -288 -127 -430 -213 -215
-132 -530 -367 -555 -416 -8 -16 -21 -68 -29 -117 -16 -98 -31 -576 -18 -555
6 9 13 -2 21 -35 7 -26 28 -95 46 -153 18 -58 46 -159 60 -225 15 -65 38 -151
52 -190 33 -92 109 -237 150 -285 18 -21 33 -45 33 -52 0 -20 -49 -141 -63
-155 -33 -33 -352 97 -514 210 -40 27 -73 54 -73 59 0 5 7 23 16 39 8 17 13
33 11 36 -3 2 -52 -88 -108 -201 -57 -113 -109 -206 -116 -206 -7 0 -31 16
-53 36 -53 48 -54 20 -2 -36 39 -40 71 -50 90 -27 5 6 42 74 82 149 39 76 75
140 79 142 3 3 40 -18 81 -46 93 -62 230 -128 340 -162 46 -15 90 -32 98 -38
20 -17 12 -43 -69 -239 -90 -219 -149 -376 -149 -400 0 -21 58 -56 70 -42 13
14 40 105 40 135 0 27 2 28 50 28 28 0 50 -3 50 -7 -1 -5 -8 -37 -18 -72 l-17
-64 -53 -15 c-28 -8 -52 -18 -52 -22 0 -21 335 -238 348 -226 2 3 5 23 5 44
l0 40 54 6 c30 3 81 15 114 26 32 11 63 20 69 20 6 0 -19 -28 -55 -62 -36 -33
-75 -74 -86 -89 l-20 -29 83 -38 c140 -65 129 -68 167 51 18 56 38 120 44 142
10 34 16 40 37 38 138 -14 236 -29 242 -37 14 -21 7 -112 -17 -221 -18 -85
-21 -113 -12 -122 7 -7 42 -15 80 -19 79 -8 76 -15 46 119 -11 50 -22 106 -24
122 -2 17 -6 40 -10 53 -10 29 9 29 42 -2 24 -22 103 -66 146 -80 14 -4 17
-17 17 -72 0 -90 24 -170 53 -178 12 -3 74 -9 138 -12 l116 -7 79 55 c43 31
106 65 139 78 123 46 336 34 365 -21 14 -26 73 -23 78 3 5 24 -46 134 -85 186
-18 23 -33 48 -33 55 0 15 37 134 47 152 13 20 185 146 192 140 3 -4 6 -46 5
-93 -1 -66 -7 -106 -27 -165 -31 -90 -32 -93 -13 -78 22 18 82 150 94 206 6
28 13 88 16 135 l5 85 63 58 c109 100 145 127 160 122 19 -8 132 -178 157
-238 31 -74 52 -152 59 -223 l7 -65 75 50 c41 28 88 61 104 74 l29 23 -26 40
c-35 54 -70 90 -153 156 -76 60 -179 169 -197 205 -7 17 -6 27 3 38 22 27 151
98 220 122 97 33 129 30 240 -23 76 -38 111 -62 177 -127 58 -56 87 -78 98
-73 14 5 2 22 -54 82 -39 42 -71 81 -71 88 1 6 47 33 103 59 57 27 152 79 212
115 90 55 114 75 134 111 l24 44 -44 -30 c-149 -103 -459 -269 -484 -259 -8 3
-23 22 -34 43 -10 21 -51 70 -91 110 l-71 71 38 66 c21 36 41 65 46 66 10 0 9
-43 -3 -114 -5 -33 -7 -62 -5 -64 10 -11 45 32 79 97 48 92 76 200 78 305 1
47 5 86 8 86 4 0 29 -20 56 -45 62 -58 142 -112 180 -121 l29 -7 -34 39 c-19
21 -54 79 -77 129 -48 100 -107 298 -92 304 6 2 33 -19 62 -46 28 -26 65 -60
82 -73 44 -36 -142 145 -261 253 -165 150 -224 223 -271 336 -46 111 -372 621
-426 667 -68 56 -406 201 -748 319 -69 24 -165 57 -215 75 -94 32 -185 59
-318 91 -74 18 -230 33 -252 25z m64 -552 c2 -123 61 -375 96 -404 18 -15 18
-12 0 70 -14 63 -21 320 -9 307 3 -3 16 -57 29 -120 25 -123 76 -286 100 -320
16 -23 18 -19 15 31 -2 41 13 41 38 -2 l20 -34 121 5 c71 4 121 2 121 -3 0 -5
-7 -20 -16 -32 -21 -31 -3 -29 77 7 54 24 194 61 233 61 6 0 -11 -19 -37 -41
-66 -56 -98 -124 -99 -203 0 -78 14 -116 44 -116 20 0 20 -1 4 -13 -16 -12
-16 -14 3 -34 25 -27 100 -43 202 -43 66 0 86 4 117 24 46 29 89 105 94 166
l3 45 -48 -3 c-53 -4 -77 9 -77 41 0 45 48 70 91 47 23 -13 24 -8 4 30 -15 29
-73 80 -92 80 -6 0 -16 7 -23 15 -15 18 -7 19 100 5 117 -16 112 -12 105 -86
-8 -67 -6 -71 27 -53 19 10 20 9 13 -23 -17 -77 -71 -220 -122 -322 -58 -116
-97 -174 -187 -277 -40 -45 -52 -65 -41 -67 18 -4 105 44 165 92 25 19 46 33
48 31 2 -2 -6 -29 -18 -61 -30 -80 -47 -172 -55 -292 -8 -101 -8 -103 -40
-128 -29 -22 -39 -24 -101 -20 -109 8 -274 26 -334 37 -30 5 -156 10 -280 12
-124 2 -188 2 -142 0 72 -3 82 -6 82 -23 0 -10 -20 -83 -45 -162 -49 -153
-126 -444 -146 -545 -6 -35 -17 -68 -25 -73 -9 -8 -40 -8 -108 -1 -52 6 -103
10 -113 10 -23 -2 46 -18 110 -26 26 -3 47 -10 47 -15 0 -5 -11 -29 -25 -53
-14 -23 -29 -62 -33 -86 -6 -34 -12 -45 -32 -50 -25 -7 -25 -7 3 -8 23 -1 28
-5 25 -23 -3 -22 -6 -23 -93 -20 -89 3 -155 16 -155 31 0 8 59 36 95 45 11 3
0 3 -25 1 -25 -2 -55 -7 -67 -11 -22 -6 -23 -4 -23 45 0 90 50 170 107 172 15
0 14 2 -4 9 -28 11 -28 13 -4 81 26 76 73 252 126 472 24 103 49 196 55 206 5
10 26 22 46 25 20 4 34 9 31 12 -2 3 -43 9 -90 14 -50 5 -101 17 -123 28 -40
21 -132 108 -123 116 3 3 23 -1 44 -9 68 -24 84 -18 34 14 -24 15 -76 61 -115
102 -67 70 -72 78 -83 140 -6 36 -11 86 -11 110 -1 69 -15 117 -76 250 -76
169 -77 171 -30 135 44 -33 53 -29 37 15 -17 50 -14 59 34 80 47 21 194 51
208 42 4 -2 -7 -22 -26 -42 -50 -56 -71 -118 -65 -194 7 -80 24 -117 55 -117
12 0 23 -4 23 -10 0 -5 -4 -10 -10 -10 -23 0 -7 -32 30 -59 l41 -29 93 31
c126 43 135 50 145 117 5 30 6 70 4 88 -5 32 -7 33 -38 28 -45 -9 -81 20 -71
58 5 19 15 28 36 33 17 3 30 9 30 14 0 5 -17 27 -37 50 l-36 40 29 -6 c16 -4
37 -9 47 -12 23 -6 22 6 -4 33 -12 13 -22 33 -23 46 -1 20 -9 24 -83 37 -67
12 -83 19 -83 33 0 9 8 22 18 27 16 10 16 10 0 11 -15 0 -18 9 -18 56 0 73 11
92 49 86 17 -2 34 -9 39 -16 12 -15 36 -135 29 -142 -3 -3 4 -15 15 -26 11
-11 21 -18 23 -16 1 2 10 66 19 143 27 224 64 403 77 370 4 -11 8 -48 8 -81z
m-185 -82 l7 -124 -23 7 c-47 14 -48 23 -28 128 17 89 28 123 35 115 1 -2 5
-59 9 -126z m813 -4 c-3 -7 -5 -2 -5 12 0 14 2 19 5 13 2 -7 2 -19 0 -25z m57
-120 c15 -35 34 -75 42 -90 19 -36 19 -36 -27 -48 -33 -9 -44 -9 -50 2 -4 7
-4 17 0 21 5 5 3 21 -4 35 -8 15 -14 50 -15 77 -2 65 -2 65 14 65 7 0 25 -28
40 -62z m85 11 c17 -28 31 -54 31 -59 0 -5 7 -16 16 -25 21 -21 10 -47 -18
-43 -17 2 -23 9 -22 26 0 12 -3 22 -7 22 -9 0 -39 86 -39 112 0 10 2 18 4 18
1 0 17 -23 35 -51z m432 -39 c11 -45 17 -86 12 -91 -19 -19 -31 11 -38 96 -4
50 -4 87 -1 84 3 -3 15 -43 27 -89z m-1506 -128 c-4 -11 -9 -12 -16 -5 -7 7
-8 28 -3 59 l8 49 9 -43 c4 -24 6 -51 2 -60z m898 64 c6 -16 -2 -28 -14 -20
-12 7 -11 34 0 34 5 0 11 -6 14 -14z m-1183 -92 c11 -55 10 -68 -1 -75 -26
-16 -29 -9 -29 59 0 58 5 82 16 82 1 0 7 -30 14 -66z m1204 40 c8 -20 -1 -34
-20 -34 -8 0 -14 8 -14 18 0 33 23 44 34 16z m-914 -60 c0 -8 -7 -14 -15 -14
-15 0 -21 21 -9 33 10 9 24 -2 24 -19z m2015 -676 c-10 -33 -53 -98 -65 -98
-12 0 -3 20 37 83 26 42 38 48 28 15z m-2475 -496 c0 -7 -10 -31 -21 -54 -20
-39 -22 -41 -35 -23 -18 24 -73 166 -81 208 -5 30 -1 27 65 -43 39 -41 71 -81
72 -88z m1758 -102 l4 -25 -21 22 c-26 27 -27 36 -3 31 9 -2 18 -14 20 -28z
m-1692 -486 c116 -38 211 -91 286 -162 62 -59 66 -65 56 -88 -14 -29 -32 -30
-83 -4 -48 24 -69 25 -118 1 -48 -23 -37 -34 16 -15 36 13 46 13 90 -2 52 -17
67 -35 47 -59 -16 -19 -106 -19 -140 0 -30 17 -40 18 -40 5 0 -22 83 -49 127
-43 l43 6 0 -50 0 -51 -49 -21 c-27 -11 -54 -21 -59 -21 -5 0 -34 -11 -63 -24
-60 -27 -136 -41 -172 -32 -13 3 -30 20 -40 40 -17 36 -88 96 -114 96 -12 0
-17 13 -14 33 1 5 -3 6 -8 3 -15 -10 -21 23 -11 67 32 144 126 346 161 347 4
0 42 -12 85 -26z m-281 -70 c-34 -123 -47 -154 -61 -154 -19 0 -11 28 59 192
18 44 19 25 2 -38z m1543 -80 c20 -14 21 -20 16 -97 -3 -45 -9 -106 -15 -136
-5 -30 -8 -64 -8 -75 1 -12 4 -5 8 14 6 33 9 35 49 38 69 5 146 -15 174 -46
38 -41 168 -233 168 -249 0 -9 -24 -1 -72 26 -83 44 -209 93 -283 111 -27 6
-51 15 -53 21 -2 5 -17 9 -34 9 -23 0 -31 5 -36 23 -6 22 -6 22 -12 -3 -5 -22
-13 -26 -67 -32 -82 -9 -135 -38 -180 -98 -21 -28 -41 -50 -46 -50 -22 0 -98
48 -144 91 -28 27 -56 49 -62 49 -5 0 -19 15 -30 34 -22 35 -30 126 -11 126 6
0 29 -9 51 -20 43 -23 99 -20 120 6 17 20 5 28 -22 14 -26 -15 -101 -7 -130
13 -17 13 -18 15 -4 27 9 7 36 16 60 20 40 6 48 4 77 -21 35 -30 63 -38 56
-16 -3 6 -23 25 -45 41 -35 24 -44 26 -63 16 -12 -6 -33 -9 -46 -6 l-24 6 34
30 c50 44 167 94 281 120 55 12 105 24 110 25 6 2 44 4 85 4 53 1 82 -4 98
-15z m496 -208 c-10 -31 -20 -54 -22 -51 -2 2 4 29 13 60 10 30 20 53 22 51 3
-2 -3 -29 -13 -60z m-37 -108 c-3 -8 -6 -5 -6 6 -1 11 2 17 5 13 3 -3 4 -12 1
-19z m-10 -50 c-3 -7 -5 -2 -5 12 0 14 2 19 5 13 2 -7 2 -19 0 -25z m-20 -50
c-3 -8 -6 -5 -6 6 -1 11 2 17 5 13 3 -3 4 -12 1 -19z"/>
<path d="M2590 1832 c-44 -22 -71 -27 -137 -29 -46 -1 -88 -5 -94 -9 -7 -4
-10 -27 -7 -60 5 -59 36 -112 79 -138 42 -25 43 -19 4 15 -37 33 -46 71 -22
102 10 15 17 16 46 6 21 -8 72 -10 142 -7 l109 6 0 -30 c0 -33 -13 -62 -44
-97 l-21 -24 22 12 c61 31 72 162 20 240 -15 22 -31 41 -35 40 -4 0 -32 -13
-62 -27z"/>
<path d="M2602 580 c-6 -11 -12 -34 -12 -52 1 -41 15 -20 23 35 7 43 6 44 -11
17z"/>
<path d="M4800 3530 c0 -5 9 -10 20 -10 11 0 20 5 20 10 0 6 -9 10 -20 10 -11
0 -20 -4 -20 -10z"/>
<path d="M912 2255 c0 -16 2 -22 5 -12 2 9 2 23 0 30 -3 6 -5 -1 -5 -18z"/>
<path d="M370 2074 c8 -4 18 -12 22 -17 4 -7 14 -7 30 0 21 11 21 12 3 12 -11
1 -31 4 -45 6 -14 3 -18 2 -10 -1z"/>
<path d="M4626 1837 c3 -10 9 -15 12 -12 3 3 0 11 -7 18 -10 9 -11 8 -5 -6z"/>
<path d="M4686 1757 c3 -10 9 -15 12 -12 3 3 0 11 -7 18 -10 9 -11 8 -5 -6z"/>
<path d="M4831 1724 c-24 -13 -38 -24 -31 -24 13 0 80 38 80 46 0 5 1 6 -49
-22z"/>
<path d="M4720 1713 c0 -9 40 -36 45 -31 2 2 -8 11 -21 21 -13 10 -24 14 -24
10z"/>
<path d="M691 1653 c-10 -26 -10 -27 4 -9 8 11 15 23 15 28 0 15 -7 8 -19 -19z"/>
<path d="M3470 210 c0 -23 4 -30 20 -30 22 0 25 12 10 41 -16 28 -30 23 -30
-11z"/>
</g>
</svg>
